<?xml version="1.0" encoding="utf-8"?>
<!-- Generator: Adobe Illustrator 25.2.1, SVG Export Plug-In . SVG Version: 6.00 Build 0)  -->
<svg version="1.1" id="Layer_1" xmlns="http://www.w3.org/2000/svg" xmlns:xlink="http://www.w3.org/1999/xlink" x="0px" y="0px"
	 viewBox="0 0 64.4 64.4" style="enable-background:new 0 0 64.4 64.4;" xml:space="preserve">
<style type="text/css">
	.st0{fill:#F57C00;}
</style>
<path class="st0" d="M55,9.4C42.4-3.2,22-3.2,9.4,9.4C-3.2,22-3.2,42.4,9.4,55C22,67.6,42.4,67.6,55,55c6-6,9.4-14.2,9.4-22.8
	C64.4,23.7,61,15.5,55,9.4L55,9.4z M50.2,53.6c-11.8,10-29.5,8.4-39.5-3.4s-8.4-29.5,3.4-39.5s29.5-8.4,39.5,3.4
	c4.2,5,6.6,11.4,6.6,18C60.2,40.5,56.5,48.3,50.2,53.6z"/>
<path class="st0" d="M56.9,32.2c0,6.5-2.6,12.8-7.1,17.4l-0.1,0.1c-0.8,0.8-2,0.8-2.8,0l-0.1-0.1c-0.8-0.8-0.8-2,0-2.8l0.1-0.1
	c7.4-7.4,7.9-19.2,1.3-27.3l-15,15c-0.5,0.5-1.3,0.5-1.8,0l-15-15c-6.6,8.1-6,19.9,1.3,27.3l0.1,0.1c0.8,0.8,0.8,2.1,0,2.8l-0.1,0.1
	c-0.8,0.8-2.1,0.8-2.8,0l-0.1-0.1c-9-9.1-9.6-23.5-1.3-33.3c0.5-0.5,0.9-1.1,1.4-1.6l0.6-0.6c0.5-0.5,1.3-0.5,1.8,0l2.1,2.1l13,13
	l15.1-15.1c0.5-0.5,1.3-0.5,1.8,0l0.6,0.6c0.5,0.5,1,1,1.4,1.6C54.9,20.7,56.9,26.4,56.9,32.2L56.9,32.2z"/>
<path class="st0" d="M32.3,7.5c-4.1,0-7.3,3.3-7.3,7.3s3.3,7.3,7.3,7.3s7.3-3.3,7.3-7.3S36.3,7.5,32.3,7.5z M32.3,18
	c-1.7,0-3.1-1.4-3.1-3.1s1.4-3.1,3.1-3.1c1.7,0,3.1,1.4,3.1,3.1C35.4,16.6,34,18,32.3,18z"/>
</svg>
